<svg width="32" height="32" viewBox="0 0 32 32" fill="none" xmlns="http://www.w3.org/2000/svg">
<path d="M24.4012 4.705C24.2843 4.70529 24.1695 4.67421 24.0687 4.615C21.295 3.13 18.8968 2.5 16.0218 2.5C13.1612 2.5 10.445 3.205 7.97434 4.615C7.62497 4.8125 7.19434 4.675 6.99184 4.3125C6.90146 4.13754 6.88107 3.93473 6.93482 3.74527C6.98856 3.55582 7.11242 3.39393 7.28122 3.2925C9.94583 1.78123 12.9585 0.991062 16.0218 0.999999C19.0987 0.999999 21.7862 1.705 24.7337 3.28C24.9057 3.37455 25.0337 3.53274 25.0904 3.72063C25.1471 3.90851 25.1278 4.11113 25.0368 4.285C24.9821 4.40844 24.8932 4.51362 24.7805 4.58806C24.6679 4.66249 24.5362 4.70308 24.4012 4.705ZM3.72684 12.58C3.57673 12.5789 3.43056 12.5318 3.30809 12.445C3.14876 12.3266 3.04159 12.1509 3.00918 11.9551C2.97677 11.7592 3.02164 11.5584 3.13434 11.395C4.56497 9.295 6.38434 7.645 8.55247 6.49C13.0887 4.0625 18.8968 4.045 23.4475 6.475C25.615 7.63 27.435 9.265 28.8656 11.35C28.9778 11.5136 29.0224 11.7142 28.99 11.91C28.9576 12.1057 28.8508 12.2813 28.6918 12.4C28.6147 12.4576 28.5266 12.4988 28.4329 12.5211C28.3392 12.5433 28.242 12.546 28.1472 12.5292C28.0524 12.5123 27.9621 12.4761 27.8818 12.423C27.8016 12.3698 27.7331 12.3007 27.6806 12.22C26.3806 10.33 24.7337 8.845 22.7831 7.81C18.6368 5.605 13.3343 5.605 9.20247 7.825C7.23747 8.875 5.59059 10.375 4.29059 12.2625C4.23454 12.3618 4.15237 12.4439 4.053 12.4999C3.95363 12.5558 3.84084 12.5835 3.72684 12.58ZM12.7562 30.6875C12.6607 30.6884 12.5662 30.6688 12.4789 30.63C12.3917 30.5912 12.3138 30.534 12.2506 30.4625C10.9937 29.155 10.3125 28.3125 9.34684 26.5C8.34684 24.655 7.82997 22.405 7.82997 19.99C7.82997 15.535 11.4993 11.905 16.0075 11.905C20.5156 11.905 24.1875 15.535 24.1875 19.99C24.1903 20.0866 24.1737 20.1828 24.1387 20.2729C24.1037 20.363 24.051 20.4452 23.9836 20.5146C23.9163 20.5839 23.8357 20.639 23.7467 20.6767C23.6576 20.7143 23.562 20.7337 23.4653 20.7337C23.3686 20.7337 23.2729 20.7143 23.1839 20.6767C23.0949 20.639 23.0143 20.5839 22.9469 20.5146C22.8796 20.4452 22.8269 20.363 22.7918 20.2729C22.7568 20.1828 22.7403 20.0866 22.7431 19.99C22.7431 16.36 19.7231 13.405 16.0106 13.405C12.2981 13.405 9.27497 16.36 9.27497 19.99C9.27497 22.15 9.73684 24.145 10.6181 25.765C11.5431 27.49 12.1806 28.225 13.2912 29.395C13.4229 29.5406 13.4959 29.7299 13.4959 29.9262C13.4959 30.1226 13.4229 30.3119 13.2912 30.4575C13.1494 30.6006 12.9576 30.683 12.7562 30.6875ZM23.1156 27.9125C21.3962 27.9125 19.8793 27.4625 18.6368 26.5775C17.5783 25.8355 16.7135 24.8501 16.1153 23.7041C15.517 22.5581 15.2029 21.2852 15.1993 19.9925C15.1953 19.8951 15.211 19.7979 15.2455 19.7067C15.2799 19.6155 15.3325 19.5322 15.4 19.4619C15.4675 19.3915 15.5485 19.3355 15.6382 19.2973C15.7279 19.259 15.8244 19.2393 15.9218 19.2393C16.0193 19.2393 16.1158 19.259 16.2055 19.2973C16.2952 19.3355 16.3762 19.3915 16.4437 19.4619C16.5112 19.5322 16.5637 19.6155 16.5982 19.7067C16.6327 19.7979 16.6484 19.8951 16.6443 19.9925C16.6468 21.0425 16.9029 22.0764 17.3908 23.0061C17.8787 23.9359 18.5841 24.734 19.4468 25.3325C20.4725 26.0525 21.6718 26.395 23.1168 26.395C23.6201 26.3861 24.1218 26.3359 24.6168 26.245C25.0068 26.17 25.3825 26.44 25.4543 26.86C25.491 27.0538 25.4492 27.2543 25.3383 27.4174C25.2273 27.5805 25.0562 27.6929 24.8625 27.73C24.287 27.8437 23.7022 27.904 23.1156 27.91V27.9125ZM20.2112 31C20.1478 30.9974 20.0848 30.9873 20.0237 30.97C17.7262 30.31 16.2237 29.425 14.6487 27.82C12.6256 25.735 11.5137 22.96 11.5137 19.99C11.5137 17.56 13.5075 15.58 15.9631 15.58C18.4187 15.58 20.4131 17.56 20.4131 19.99C20.4131 21.595 21.7568 22.9 23.4181 22.9C25.0793 22.9 26.4231 21.595 26.4231 19.99C26.4231 14.335 21.7275 9.745 15.9487 9.745C11.8456 9.745 8.08934 12.115 6.39934 15.79C5.83684 17.005 5.54684 18.43 5.54684 19.99C5.54684 21.16 5.64747 23.005 6.51434 25.405C6.65934 25.795 6.47122 26.23 6.09559 26.365C6.00633 26.399 5.91111 26.4146 5.81566 26.4109C5.72021 26.4071 5.6265 26.3841 5.54016 26.3433C5.45382 26.3024 5.37663 26.2445 5.31323 26.1731C5.24983 26.1016 5.20152 26.0181 5.17122 25.9275C4.47414 24.0255 4.11703 22.0157 4.11622 19.99C4.11622 18.19 4.44872 16.5525 5.09872 15.13C7.02059 10.9425 11.2825 8.23 15.9487 8.23C22.5225 8.23 27.8681 13.495 27.8681 19.975C27.8681 22.405 25.8743 24.385 23.4181 24.385C20.9618 24.385 18.9681 22.405 18.9681 19.975C18.9687 18.37 17.625 17.0625 15.9637 17.0625C14.3025 17.0625 12.9587 18.3675 12.9587 19.9725C12.9587 22.535 13.9125 24.9375 15.6606 26.7375C17.0356 28.1475 18.3481 28.925 20.385 29.5125C20.775 29.6175 20.9918 30.0375 20.8906 30.4275C20.859 30.5858 20.7746 30.7287 20.6512 30.8327C20.5277 30.9368 20.3726 30.9957 20.2112 31Z" fill="#222222" fill-opacity="0.65" stroke="#222222" stroke-opacity="0.65" stroke-width="0.0625"/>
</svg>
