<svg width="47" height="69" viewBox="0 0 47 69" fill="none" xmlns="http://www.w3.org/2000/svg">
<mask id="mask0_23_53" style="mask-type:luminance" maskUnits="userSpaceOnUse" x="0" y="0" width="47" height="69">
<path d="M47 0H0V69H47V0Z" fill="white"/>
</mask>
<g mask="url(#mask0_23_53)">
<path d="M39.7468 5.60056H36.5464C35.3925 5.60056 34.4573 6.58224 34.4573 7.7932V20.0037C34.4573 21.2147 35.3925 22.1963 36.5464 22.1963H39.7468C40.9007 22.1963 41.8358 21.2147 41.8358 20.0037V7.7932C41.8358 6.58224 40.9007 5.60056 39.7468 5.60056Z" fill="#F9FAF9"/>
<path d="M27.7795 67.891V56.3234H41.346L29.579 68.6744C29.4316 68.8294 29.2436 68.9347 29.0391 68.9773C28.8345 69.0199 28.6224 68.9981 28.4298 68.9142C28.2371 68.8303 28.0724 68.6882 27.9567 68.506C27.8409 68.3242 27.7793 68.11 27.7795 67.891Z" fill="#F9FAF9"/>
<path d="M42.0729 55.6046H27.7795V56.9912H40.6833L42.0729 55.6046Z" fill="#BB8A52"/>
<path d="M45.0113 21.3549L25.4876 0.86073C24.9596 0.309273 24.245 -0.000305176 23.5002 -0.000305176C22.7553 -0.000305176 22.0407 0.309273 21.5127 0.86073L1.98928 21.3549C0.797902 22.7456 0.0959081 24.5225 0 26.3901V30C10.6663 38.3294 23.6117 42.8175 36.9063 42.795C40.2873 42.7957 43.6629 42.5072 46.9994 41.9326V26.3901C46.9024 24.523 46.2012 22.7466 45.0113 21.3549Z" fill="#F9FAF9"/>
<path d="M36.9069 46.1144C23.6124 46.1365 10.667 41.6484 0.000610352 33.3193V52.8194C0.00302299 53.6012 0.299926 54.35 0.826508 54.9026C1.35309 55.4555 2.06659 55.767 2.81128 55.7695H44.1896C44.9342 55.767 45.6476 55.4551 46.1743 54.9026C46.7008 54.3497 46.9976 53.6009 47 52.8194V45.2519C43.6635 45.8266 40.2879 46.115 36.9069 46.1144Z" fill="#F9FAF9"/>
</g>
</svg>
